<?xml version="1.0" encoding="UTF-8"?>
<svg version="1.1" xmlns="http://www.w3.org/2000/svg" width="256" height="256">
<path d="M0 0 C3.19842536 0.86297137 4.17435062 2.89720093 6.0703125 5.55859375 C7.17102883 7.81871981 8.18883424 10.12014811 9.14453125 12.4453125 C9.42510376 13.1218689 9.70567627 13.79842529 9.99475098 14.4954834 C10.92392818 16.74242126 11.84094746 18.9941068 12.7578125 21.24609375 C13.42104639 22.85806938 14.08487852 24.46979897 14.74926758 26.08129883 C16.86978067 31.23492339 18.972076 36.39586589 21.0703125 41.55859375 C21.40885254 42.39116699 21.74739258 43.22374023 22.09619141 44.08154297 C25.56525425 52.61627349 29.0205982 61.15651457 32.46853638 69.69979858 C37.57563362 82.35292513 42.72290711 94.98942033 47.8828125 107.62109375 C48.3001767 108.64294769 48.71754089 109.66480164 49.14755249 110.71762085 C51.27199679 115.91882894 53.39686534 121.11986355 55.52197266 126.32080078 C59.70769629 136.56552993 63.88870201 146.81218524 68.0703125 157.05859375 C69.7187007 161.09767637 71.36713281 165.13674107 73.015625 169.17578125 C73.42524979 170.17942215 73.83487457 171.18306305 74.25691223 172.21711731 C76.89653931 178.68412804 79.53735409 185.15065271 82.17889404 191.61688232 C83.99730233 196.0682887 85.81531592 200.51985623 87.63330078 204.97143555 C88.49378137 207.07812389 89.35445187 209.18473467 90.21533203 211.29125977 C90.62251465 212.28762451 91.02969727 213.28398926 91.44921875 214.31054688 C92.04322479 215.76391449 92.04322479 215.76391449 92.64923096 217.24664307 C93.77714278 220.01100053 94.89998812 222.77737587 96.02246094 225.54394531 C97.31240679 228.71892963 98.62630672 231.88147238 99.96972656 235.03417969 C100.25494171 235.71475433 100.54015686 236.39532898 100.83401489 237.0965271 C101.57420756 238.86118831 102.32585323 240.6210341 103.07861328 242.38037109 C104.4395749 246.74201521 104.79020423 250.68687524 103.1328125 254.99609375 C100.27091207 257.16420014 98.15071052 257.05725359 94.62329102 256.98510742 C89.72584215 256.16691452 86.0241674 253.27537609 82.0078125 250.49609375 C80.05692224 249.20041753 78.1050653 247.90619587 76.15234375 246.61328125 C75.15025879 245.94135742 74.14817383 245.26943359 73.11572266 244.57714844 C68.20589479 241.3228229 63.20071757 238.22555129 58.1953125 235.12109375 C56.17943779 233.86368149 54.1638141 232.60586672 52.1484375 231.34765625 C50.12246801 230.08451964 48.09642625 228.82149895 46.0703125 227.55859375 C43.03297864 225.66538083 39.99586328 223.77182562 36.9597168 221.87670898 C34.96492481 220.63220565 32.96900915 219.38950146 30.97192383 218.14868164 C25.88877488 214.98224667 20.8454727 211.76848482 15.84765625 208.46875 C14.84557129 207.81269775 13.84348633 207.15664551 12.81103516 206.48071289 C10.90271187 205.22806747 9.00217134 203.96345903 7.11083984 202.68530273 C5.83200928 201.84914429 5.83200928 201.84914429 4.52734375 200.99609375 C3.78460205 200.49980469 3.04186035 200.00351563 2.27661133 199.4921875 C-0.62973116 198.26237078 -1.95127774 198.57089197 -4.9296875 199.55859375 C-7.6559381 200.94653742 -7.6559381 200.94653742 -10.4375 202.734375 C-12.02618896 203.71966187 -12.02618896 203.71966187 -13.64697266 204.72485352 C-14.78299852 205.4400749 -15.91890061 206.15549293 -17.0546875 206.87109375 C-18.23317933 207.60600009 -19.41205711 208.34028786 -20.59130859 209.07397461 C-24.04384951 211.22539722 -27.48744915 213.39072474 -30.9296875 215.55859375 C-32.26 216.39487305 -32.26 216.39487305 -33.6171875 217.24804688 C-37.45161759 219.66012749 -41.2804274 222.08087567 -45.10546875 224.5078125 C-48.61538843 226.73220302 -52.13502746 228.94041607 -55.66015625 231.140625 C-56.65635986 231.76243652 -57.65256348 232.38424805 -58.67895508 233.02490234 C-60.7124463 234.29196494 -62.74742984 235.55663584 -64.78393555 236.81884766 C-69.92075071 240.01159106 -75.00773908 243.25632121 -80.03125 246.625 C-81.50307739 247.59977295 -81.50307739 247.59977295 -83.00463867 248.59423828 C-84.85996553 249.82690321 -86.70471893 251.07569339 -88.53637695 252.34326172 C-93.95402149 255.91900064 -98.3671371 257.87992446 -104.9296875 256.55859375 C-106.9921875 254.99609375 -106.9921875 254.99609375 -107.9296875 252.55859375 C-108.29756543 247.18185338 -107.41620335 243.4543972 -105.3515625 238.50390625 C-105.07353287 237.82707794 -104.79550323 237.15024963 -104.50904846 236.45291138 C-103.57716997 234.19163768 -102.62828562 231.93789892 -101.6796875 229.68359375 C-101.00417352 228.05228683 -100.32997439 226.42043492 -99.65698242 224.78808594 C-98.19711404 221.2506711 -96.7311008 217.71588714 -95.26123047 214.18261719 C-92.87808336 208.44525793 -90.52717552 202.6950228 -88.18359375 196.94140625 C-87.78202057 195.95552521 -87.38044739 194.96964417 -86.96670532 193.95388794 C-86.14320429 191.93175699 -85.31978998 189.90959072 -84.49645996 187.88739014 C-82.36970469 182.66695627 -80.23742801 177.44877903 -78.10546875 172.23046875 C-73.4598119 160.85748565 -68.81681508 149.48341838 -64.1746521 138.10900879 C-62.09311515 133.00882231 -60.01139172 127.90871195 -57.9296875 122.80859375 C-57.09635328 120.76692745 -56.26301994 118.72526078 -55.4296875 116.68359375 C-50.4296875 104.43359375 -50.4296875 104.43359375 -49.17991638 101.37168884 C-48.34578808 99.3280516 -47.51169186 97.28440128 -46.67762756 95.24073792 C-44.60671874 90.16661366 -42.53527038 85.09271107 -40.46264648 80.01928711 C-36.56379098 70.47391622 -32.67058693 60.92634413 -28.7953186 51.37136841 C-26.9694889 46.87045519 -25.14073999 42.37073068 -23.31176758 37.87109375 C-22.44279533 35.73089789 -21.57524534 33.59012393 -20.70922852 31.44873047 C-19.50639459 28.4747501 -18.29861912 25.50281946 -17.08984375 22.53125 C-16.74172134 21.66673721 -16.39359894 20.80222443 -16.03492737 19.91151428 C-8.10436706 0.4776338 -8.10436706 0.4776338 0 0 Z " fill="#6288EA" transform="translate(129.9296875,-0.55859375)"/>
<path d="M0 0 C1.32 0 2.64 0 4 0 C4.33 65.01 4.66 130.02 5 197 C1.37 198.98 -2.26 200.96 -6 203 C-9.42031541 205.11683347 -12.81190902 207.25264638 -16.1875 209.4375 C-18.12054215 210.67794333 -20.05415621 211.91749581 -21.98828125 213.15625 C-22.97779785 213.79046875 -23.96731445 214.4246875 -24.98681641 215.078125 C-29.92920724 218.23049096 -34.90110052 221.33517006 -39.875 224.4375 C-40.86443604 225.0550415 -41.85387207 225.67258301 -42.87329102 226.30883789 C-45.91505589 228.20664912 -48.9574368 230.10346894 -52 232 C-55.17248477 233.97767188 -58.34473786 235.9557053 -61.51586914 237.93554688 C-63.56555719 239.21412731 -65.61679398 240.49022879 -67.66967773 241.76367188 C-71.93445022 244.41651996 -76.17164529 247.08094954 -80.30078125 249.94140625 C-89.83538199 256.52273565 -89.83538199 256.52273565 -95.1875 256.8125 C-99 256 -99 256 -101.0625 254.4375 C-103.31590348 248.57865095 -101.74445552 243.51427808 -99.421875 237.9453125 C-99.14384537 237.26848419 -98.86581573 236.59165588 -98.57936096 235.89431763 C-97.64748247 233.63304393 -96.69859812 231.37930517 -95.75 229.125 C-95.07448602 227.49369308 -94.40028689 225.86184117 -93.72729492 224.22949219 C-92.26742654 220.69207735 -90.8014133 217.15729339 -89.33154297 213.62402344 C-86.94839586 207.88666418 -84.59748802 202.13642905 -82.25390625 196.3828125 C-81.85233307 195.39693146 -81.45075989 194.41105042 -81.03701782 193.39529419 C-80.21351679 191.37316324 -79.39010248 189.35099697 -78.56677246 187.32879639 C-76.44001719 182.10836252 -74.30774051 176.89018528 -72.17578125 171.671875 C-67.5301244 160.2988919 -62.88712758 148.92482463 -58.2449646 137.55041504 C-56.16342765 132.45022856 -54.08170422 127.3501182 -52 122.25 C-51.16666578 120.2083337 -50.33333244 118.16666703 -49.5 116.125 C-44.5 103.875 -44.5 103.875 -43.25022888 100.81309509 C-42.41610058 98.76945785 -41.58200436 96.72580753 -40.74794006 94.68214417 C-38.67703124 89.60801991 -36.60558288 84.53411732 -34.53295898 79.46069336 C-30.63410348 69.91532247 -26.74089943 60.36775038 -22.8656311 50.81277466 C-21.0398014 46.31186144 -19.21105249 41.81213693 -17.38208008 37.3125 C-16.51310783 35.17230414 -15.64555784 33.03153018 -14.77954102 30.89013672 C-13.57670709 27.91615635 -12.36893162 24.94422571 -11.16015625 21.97265625 C-10.81203384 21.10814346 -10.46391144 20.24363068 -10.10523987 19.35292053 C-3.72975105 3.72975105 -3.72975105 3.72975105 0 0 Z " fill="#6D8FE5" transform="translate(124,0)"/>
</svg>
